# xmcd
#
# Track frame offsets: 
#        150
#        19050
#        35100
#        49950
#        72825
#        89475
#        109875
#        128625
#        143025
#        157575
#        172875
#        188548
#
# Disc length: 2795 seconds
#
# Revision: 0
# Processed by: cddbd v1.5.2PL0 Copyright (c) Steve Scherf et al.
# Submitted via: ExactAudioCopy v0.99pb4
#
DISCID=980ae90c
DTITLE=Jack Connolly - The Empty Cafe
DYEAR=2003
DGENRE=Country
TTITLE0=The Empty Cafe
TTITLE1=Ride No Hands
TTITLE2=32x the Size of Life
TTITLE3=Red Limousine
TTITLE4=Angel in the Flames
TTITLE5=I Just Fell Down
TTITLE6=My Crazy Mary
TTITLE7=First Thing Smokin'
TTITLE8=Wasted on the Moon
TTITLE9=Green Eyes
TTITLE10=Live on a Rock
TTITLE11=Rain of Angels
EXTD=
EXTT0=
EXTT1=
EXTT2=
EXTT3=
EXTT4=
EXTT5=
EXTT6=
EXTT7=
EXTT8=
EXTT9=
EXTT10=
EXTT11=
PLAYORDER=
